<svg width="118px" height="77px" viewBox="0 0 118 77" version="1.1" xmlns="http://www.w3.org/2000/svg">
	<title>mavericks-logo</title>
    <g id="mavericks-logo" fill="#fff">
        <path d="M106.580734,50.7479637 C106.580734,48.5618595 118,48.2493969 118,60.1173057 C118,69.3305298 103.900383,83.9472932 74.225918,73.2343844 C67.0885313,70.6579856 59,65.4879423 59,58.2432104 C59,51.4504942 62.4496563,47 70.4192656,47 C77.8060195,47 85.4732539,55.4659913 93.2577969,60.1170788 C102.536008,65.660625 108.543176,64.0989924 110.386926,60.1170788 C113.613719,53.1487299 106.580734,50.7479637 106.580734,50.7479637 Z" id="Path"></path>
        <path d="M11.4192656,50.7479637 C11.4192656,48.5618595 0,48.2493969 0,60.1173057 C0,69.3305298 14.0996172,83.9472932 43.774082,73.2343844 C50.9114687,70.6579856 59,65.4879423 59,58.2432104 C59,51.4504942 55.5503438,47 47.5807344,47 C40.1939805,47 32.5267461,55.4659913 24.7422031,60.1170788 C15.4639922,65.660625 9.45682422,64.0989924 7.61307422,60.1170788 C4.38628125,53.1487299 11.4192656,50.7479637 11.4192656,50.7479637 Z" id="Path"></path>
        <path d="M114.193578,3.7643964 L111.817906,3.7643964 C111.139637,2.5200961 109.790012,1.52068468 108.192633,1.30592192 C95.1033906,-0.351243243 81.8470586,-0.351471471 68.7578164,1.30592192 C67.8451602,1.42848048 67.013168,1.80756757 66.341582,2.34162162 C65.0726211,3.35107508 63.421082,3.76416817 61.7935117,3.76416817 L56.21225,3.76416817 C54.5846797,3.76416817 52.9329102,3.35107508 51.6639492,2.34184985 C50.9921328,1.80733934 50.1601406,1.42848048 49.2474844,1.30569369 C36.1582422,-0.351471471 22.9019102,-0.3516997 9.81266797,1.30569369 C8.21505859,1.52022823 6.86566406,2.5200961 6.18739453,3.76416817 L3.80665234,3.76416817 C1.70408594,3.7643964 0,5.45191592 0,7.53358559 L0,7.53358559 C0,9.61525526 1.70408594,11.303003 3.80642187,11.303003 L4.50036328,11.303003 C5.62551172,11.303003 6.57619531,12.1232553 6.72323437,13.2278799 C7.28119922,17.4158679 7.83939453,21.654979 8.39805078,25.9794474 C8.87719531,29.6514114 12.3335352,32.9353874 16.4573125,33.3067147 C25.1558945,34.0331652 33.9024141,34.0331652 42.6012266,33.3067147 C46.7254648,32.9337898 50.1820352,29.650955 50.6604883,25.9794474 C51.0972266,22.5982462 51.5337344,19.2563003 51.9702422,15.9538378 C53.1152109,13.2244565 55.8289805,11.3032312 58.9993086,11.3032312 C62.1800078,11.3032312 64.8983867,13.2376937 66.0369023,15.9805405 C66.4722578,19.2745586 66.9076133,22.6073754 67.3431992,25.9794474 C67.8223437,29.6514114 71.2784531,32.9353874 75.4024609,33.3067147 C84.101043,34.0331652 92.8475625,34.0331652 101.546375,33.3067147 C105.670613,32.9337898 109.127184,29.650955 109.605637,25.9794474 C110.164293,21.654979 110.722488,17.4158679 111.280684,13.2278799 C111.427953,12.1232553 112.378637,11.303003 113.503555,11.303003 L114.192426,11.303003 C116.294531,11.303003 117.998848,9.61548348 117.998848,7.53358559 L117.998848,7.53358559 C118,5.45191592 116.295914,3.7643964 114.193578,3.7643964 Z" id="Glass"></path>
    </g>
</svg>
